<?xml version="1.0" encoding="utf-8"?>
<!-- Generator: Adobe Illustrator 16.0.0, SVG Export Plug-In . SVG Version: 6.00 Build 0)  -->
<!DOCTYPE svg PUBLIC "-//W3C//DTD SVG 1.1//EN" "http://www.w3.org/Graphics/SVG/1.1/DTD/svg11.dtd">
<svg version="1.1" xmlns="http://www.w3.org/2000/svg" xmlns:xlink="http://www.w3.org/1999/xlink" x="0px" y="0px" width="96px"
	 height="96px" viewBox="0 0 96 96" enable-background="new 0 0 96 96" xml:space="preserve">
<g id="DO_NOT_EDIT_-_BOUNDING_BOX">
</g>
<g id="DO_NOT_EDIT_-_SHADOW">
</g>
<g id="BLUE_BACKGROUNDS">
	<g id="BLUE_4_2_">
	</g>
</g>
<g id="PLACE_YOUR_GRAPHIC_HERE">
	<g>
		<rect id="BOUNDING_BOX" fill="none" width="96" height="96"/>
		<path id="SHADOW" opacity="0.4" d="M88.023,49c0,29.633-10.364,40-40,40c-29.635,0-40-10.367-40-40c0-29.634,10.366-40,40-40
			C77.659,9,88.023,19.365,88.023,49z"/>
		<linearGradient id="BLUE_4_3_" gradientUnits="userSpaceOnUse" x1="47.9995" y1="8.0107" x2="47.9995" y2="87.9897">
			<stop  offset="0" style="stop-color:#3CA0E6"/>
			<stop  offset="1" style="stop-color:#0A64AA"/>
		</linearGradient>
		<path id="BLUE_4_1_" fill="url(#BLUE_4_3_)" d="M8,47.989c0,29.633,10.365,40,40,40c29.637,0,40-10.367,40-40
			c0-28.985-9.926-39.53-38.091-39.979h-3.817C17.928,8.459,8,19.004,8,47.989z"/>
		<linearGradient id="HIGHLIGHT_BLU4_1_" gradientUnits="userSpaceOnUse" x1="47.9995" y1="8.2559" x2="47.9995" y2="87.5043">
			<stop  offset="0.0364" style="stop-color:#FFFFFF"/>
			<stop  offset="0.129" style="stop-color:#F5F7FA"/>
			<stop  offset="0.2858" style="stop-color:#DBE1ED"/>
			<stop  offset="0.4876" style="stop-color:#AFBDD7"/>
			<stop  offset="0.7265" style="stop-color:#738CB8"/>
			<stop  offset="0.9942" style="stop-color:#284D92"/>
			<stop  offset="1" style="stop-color:#264C91"/>
		</linearGradient>
		<path id="HIGHLIGHT_BLU4" opacity="0.25" fill="url(#HIGHLIGHT_BLU4_1_)" d="M48,8C18.365,8,8,18.365,8,48
			c0,29.633,10.365,40,40,40c29.637,0,40-10.367,40-40C88,18.365,77.637,8,48,8z M48,87.023C18.842,87.023,9,77.176,9,48
			S18.842,8.977,48,8.977S87,18.824,87,48S77.158,87.023,48,87.023z"/>
		<g>
			<path fill-opacity="0.02" d="M32.126,78.653c-1.065,0-2.06-0.573-2.596-1.495L22.732,65.39c-0.533-0.926-0.533-2.075,0-3.001
				l6.795-11.769c0.131-0.227,0.292-0.435,0.477-0.619c-0.184-0.184-0.344-0.39-0.474-0.614l-6.798-11.772
				c-0.533-0.927-0.533-2.075,0-2.999l6.795-11.769c0.535-0.925,1.531-1.5,2.599-1.5h13.59c1.067,0,2.063,0.575,2.599,1.5
				l6.793,11.768c0.131,0.229,0.232,0.474,0.299,0.729c0.285-0.088,0.582-0.133,0.881-0.133h13.588c1.068,0,2.063,0.574,2.598,1.499
				l6.795,11.769c0.533,0.926,0.533,2.075,0,3.001l-6.794,11.769c-0.536,0.926-1.532,1.5-2.599,1.5H56.287
				c-0.295,0-0.588-0.044-0.869-0.129c-0.066,0.27-0.172,0.53-0.311,0.772l-6.793,11.763c-0.536,0.926-1.531,1.5-2.599,1.5H32.126z"
				/>
			<path fill-opacity="0.02" d="M32.126,78.153c-0.888,0-1.717-0.478-2.163-1.246L23.166,65.14c-0.445-0.771-0.445-1.729,0-2.501
				l6.795-11.769c0.208-0.359,0.499-0.655,0.842-0.869c-0.342-0.213-0.633-0.508-0.84-0.865l-6.797-11.771
				c-0.445-0.772-0.445-1.729,0-2.499l6.795-11.769c0.445-0.771,1.275-1.25,2.165-1.25h13.59c0.89,0,1.72,0.479,2.165,1.25
				l6.793,11.768c0.214,0.37,0.324,0.784,0.333,1.199c0.382-0.228,0.823-0.354,1.28-0.354h13.588c0.891,0,1.72,0.479,2.166,1.25
				l6.793,11.768c0.445,0.771,0.445,1.729,0,2.501l-6.793,11.769c-0.447,0.771-1.277,1.25-2.166,1.25H56.287
				c-0.457,0-0.898-0.126-1.279-0.354c0,0.432-0.111,0.862-0.334,1.247l-6.793,11.763c-0.446,0.771-1.275,1.25-2.165,1.25H32.126z"
				/>
			<path fill-opacity="0.02" d="M32.126,77.653c-0.71,0-1.374-0.382-1.731-0.997L23.599,64.89c-0.356-0.617-0.356-1.384,0.001-2.001
				l6.794-11.769c0.357-0.617,1.021-1,1.732-1h13.59c0.71,0,1.374,0.382,1.731,0.997l6.794,11.772
				c0.356,0.617,0.356,1.384-0.001,2.001l-6.792,11.763c-0.357,0.617-1.021,1-1.732,1H32.126z M56.287,63.747
				c-0.711,0-1.373-0.382-1.73-0.997l-6.799-11.772c-0.355-0.617-0.355-1.384,0-2.001l6.797-11.767c0.356-0.617,1.02-1,1.732-1
				h13.588c0.713,0,1.376,0.383,1.732,1l6.794,11.768c0.356,0.617,0.356,1.384-0.001,2.001l-6.793,11.769
				c-0.357,0.617-1.021,1-1.732,1H56.287z M32.126,49.882c-0.71,0-1.374-0.382-1.731-0.997l-6.796-11.771
				c-0.355-0.617-0.355-1.384,0-1.999l6.795-11.769c0.356-0.616,1.021-1,1.732-1h13.59c0.712,0,1.376,0.384,1.732,1l6.793,11.768
				c0.355,0.617,0.355,1.383,0,1.999l-6.793,11.769c-0.357,0.617-1.021,1-1.732,1H32.126z"/>
			<path fill-opacity="0.05" d="M32.126,77.153c-0.533,0-1.03-0.287-1.298-0.748L24.031,64.64c-0.267-0.463-0.267-1.038,0.001-1.501
				l6.794-11.769c0.269-0.463,0.766-0.75,1.3-0.75h13.59c0.533,0,1.03,0.287,1.298,0.748l6.795,11.771
				c0.267,0.463,0.267,1.038-0.001,1.501l-6.792,11.763c-0.269,0.463-0.766,0.75-1.3,0.75H32.126z M56.287,63.247
				c-0.533,0-1.031-0.287-1.299-0.748l-6.797-11.771c-0.268-0.463-0.268-1.038,0-1.501l6.797-11.767
				c0.267-0.463,0.765-0.75,1.299-0.75h13.588c0.534,0,1.032,0.287,1.299,0.75l6.795,11.768c0.267,0.463,0.267,1.038-0.001,1.501
				l-6.794,11.769c-0.268,0.463-0.766,0.75-1.299,0.75H56.287z M32.126,49.382c-0.533,0-1.03-0.287-1.298-0.748l-6.797-11.77
				c-0.266-0.463-0.266-1.037,0-1.5l6.795-11.768c0.268-0.462,0.766-0.75,1.3-0.75h13.59c0.534,0,1.032,0.288,1.3,0.75l6.793,11.768
				c0.266,0.463,0.266,1.037,0,1.499l-6.793,11.769c-0.269,0.463-0.766,0.75-1.3,0.75H32.126z"/>
			<path fill-opacity="0.05" d="M32.126,76.653c-0.355,0-0.688-0.191-0.866-0.499L24.465,64.39c-0.178-0.309-0.178-0.691,0-1.001
				L31.26,51.62c0.179-0.309,0.511-0.5,0.866-0.5h13.59c0.355,0,0.688,0.191,0.866,0.499l6.793,11.771
				c0.178,0.309,0.178,0.691,0,1.001l-6.793,11.763c-0.179,0.309-0.511,0.5-0.866,0.5H32.126z M56.287,62.747
				c-0.355,0-0.688-0.191-0.865-0.499l-6.798-11.771c-0.179-0.309-0.179-0.691,0.001-1.001l6.796-11.767
				c0.179-0.309,0.511-0.5,0.866-0.5h13.588c0.355,0,0.688,0.191,0.866,0.5l6.794,11.768c0.178,0.309,0.178,0.691,0,1.001
				l-6.794,11.769c-0.179,0.309-0.511,0.5-0.866,0.5H56.287z M32.126,48.882c-0.355,0-0.688-0.191-0.866-0.499l-6.795-11.769
				c-0.178-0.309-0.178-0.691,0-1l6.795-11.768c0.178-0.309,0.51-0.5,0.866-0.5h13.59c0.356,0,0.688,0.191,0.866,0.5l6.793,11.768
				c0.178,0.309,0.178,0.691,0,1l-6.793,11.768c-0.179,0.309-0.511,0.5-0.866,0.5H32.126z"/>
			<path fill-opacity="0.05" d="M32.126,76.153c-0.179,0-0.344-0.096-0.433-0.25L24.898,64.14c-0.09-0.154-0.09-0.346,0-0.5
				l6.795-11.77c0.089-0.154,0.254-0.25,0.433-0.25h13.59c0.179,0,0.344,0.096,0.433,0.25l6.793,11.77c0.09,0.154,0.09,0.346,0,0.5
				l-6.793,11.764c-0.089,0.154-0.254,0.25-0.433,0.25H32.126z M56.287,62.247c-0.179,0-0.344-0.096-0.434-0.25l-6.797-11.77
				c-0.089-0.154-0.089-0.346,0-0.5l6.797-11.768c0.09-0.155,0.255-0.25,0.434-0.25h13.588c0.179,0,0.344,0.095,0.434,0.25
				l6.793,11.768c0.09,0.154,0.09,0.346,0,0.5l-6.793,11.77c-0.09,0.154-0.255,0.25-0.434,0.25H56.287z M32.126,48.382
				c-0.179,0-0.344-0.096-0.433-0.25l-6.795-11.768c-0.09-0.155-0.09-0.346,0-0.5l6.795-11.768c0.089-0.154,0.254-0.25,0.433-0.25
				h13.59c0.179,0,0.344,0.096,0.433,0.25l6.793,11.768c0.09,0.154,0.09,0.345,0,0.5l-6.793,11.768
				c-0.089,0.154-0.254,0.25-0.433,0.25H32.126z"/>
			<path fill-opacity="0.15" d="M32.126,47.882l-6.795-11.768l6.795-11.768h13.59l6.793,11.768l-6.793,11.768H32.126z
				 M56.287,61.747l-6.797-11.77l6.797-11.768h13.588l6.794,11.768l-6.794,11.77H56.287z M32.126,75.653L25.331,63.89l6.795-11.77
				h13.59l6.793,11.77l-6.793,11.764H32.126z"/>
			<g>
				
					<linearGradient id="SVGID_1_" gradientUnits="userSpaceOnUse" x1="134.2402" y1="1089.8398" x2="134.2402" y2="1066.3047" gradientTransform="matrix(1 0 0 1 -95.3203 -1043.9199)">
					<stop  offset="0" style="stop-color:#C6C6C6"/>
					<stop  offset="0.2868" style="stop-color:#D7D7D7"/>
					<stop  offset="0.6721" style="stop-color:#EEEEEE"/>
					<stop  offset="1" style="stop-color:#F9F9F9"/>
				</linearGradient>
				<polygon fill="url(#SVGID_1_)" points="32.126,45.92 25.331,34.152 32.126,22.384 45.716,22.384 52.509,34.152 45.716,45.92 
									"/>
				
					<linearGradient id="SVGID_2_" gradientUnits="userSpaceOnUse" x1="158.4004" y1="1103.7041" x2="158.4004" y2="1080.168" gradientTransform="matrix(1 0 0 1 -95.3203 -1043.9199)">
					<stop  offset="0" style="stop-color:#C6C6C6"/>
					<stop  offset="0.2868" style="stop-color:#D7D7D7"/>
					<stop  offset="0.6721" style="stop-color:#EEEEEE"/>
					<stop  offset="1" style="stop-color:#F9F9F9"/>
				</linearGradient>
				<polygon fill="url(#SVGID_2_)" points="56.287,59.784 49.49,48.017 56.287,36.248 69.875,36.248 76.669,48.017 69.875,59.784 
									"/>
				
					<linearGradient id="SVGID_3_" gradientUnits="userSpaceOnUse" x1="134.2402" y1="1117.6123" x2="134.2402" y2="1094.0771" gradientTransform="matrix(1 0 0 1 -95.3203 -1043.9199)">
					<stop  offset="0" style="stop-color:#C6C6C6"/>
					<stop  offset="0.2868" style="stop-color:#D7D7D7"/>
					<stop  offset="0.6721" style="stop-color:#EEEEEE"/>
					<stop  offset="1" style="stop-color:#F9F9F9"/>
				</linearGradient>
				<polygon fill="url(#SVGID_3_)" points="32.126,73.692 25.331,61.927 32.126,50.157 45.716,50.157 52.509,61.927 45.716,73.692 
									"/>
			</g>
			<linearGradient id="SVGID_4_" gradientUnits="userSpaceOnUse" x1="51" y1="73.6924" x2="51" y2="22.3843">
				<stop  offset="0" style="stop-color:#D0CBC5"/>
				<stop  offset="0.5031" style="stop-color:#FAFCEF"/>
				<stop  offset="0.9693" style="stop-color:#FFFFFF"/>
				<stop  offset="1" style="stop-color:#FFFFFF"/>
			</linearGradient>
			<path opacity="0.3" fill="url(#SVGID_4_)" d="M32.126,45.92l-6.795-11.768l6.795-11.769h13.59l6.793,11.769L45.716,45.92H32.126z
				 M56.287,59.784L49.49,48.017l6.797-11.769h13.588l6.794,11.769l-6.794,11.768H56.287z M32.126,73.692l-6.795-11.766l6.795-11.77
				h13.59l6.793,11.77l-6.793,11.766H32.126z"/>
			<g>
				<polygon fill-opacity="0.05" points="45.716,71.692 32.126,71.692 25.908,60.927 25.331,61.927 32.126,73.692 45.716,73.692 
					52.509,61.927 51.932,60.927 				"/>
				<polygon fill-opacity="0.05" points="45.716,45.92 52.509,34.152 51.932,33.152 45.716,43.92 32.126,43.92 25.908,33.152 
					25.331,34.152 32.126,45.92 				"/>
				<polygon fill-opacity="0.05" points="69.875,57.784 56.287,57.784 50.068,47.017 49.49,48.017 56.287,59.784 69.875,59.784 
					76.669,48.017 76.092,47.017 				"/>
			</g>
			<g>
				<polygon fill="#FFFFFF" points="32.126,23.384 45.716,23.384 52.221,34.652 52.509,34.152 45.716,22.384 32.126,22.384 
					25.331,34.152 25.619,34.652 				"/>
				<polygon fill="#FFFFFF" points="49.779,48.517 56.287,37.248 69.875,37.248 76.381,48.517 76.669,48.017 69.875,36.248 
					56.287,36.248 49.49,48.017 				"/>
				<polygon fill="#FFFFFF" points="32.126,50.157 25.331,61.927 25.619,62.427 32.126,51.157 45.716,51.157 52.221,62.427 
					52.509,61.927 45.716,50.157 				"/>
			</g>
		</g>
	</g>
</g>
</svg>
